<?xml version="1.0" standalone="no"?>
<!DOCTYPE svg PUBLIC "-//W3C//DTD SVG 20010904//EN"
 "http://www.w3.org/TR/2001/REC-SVG-20010904/DTD/svg10.dtd">
<svg version="1.0" xmlns="http://www.w3.org/2000/svg"
 width="512.000000pt" height="512.000000pt" viewBox="0 0 512.000000 512.000000"
 preserveAspectRatio="xMidYMid meet">
<metadata>
Created by potrace 1.14, written by Peter Selinger 2001-2017
</metadata>
<g transform="translate(0.000000,512.000000) scale(0.100000,-0.100000)"
fill="#000000" stroke="none">
<path d="M1912 4778 c-372 -75 -669 -351 -763 -708 -28 -109 -34 -291 -13
-404 29 -154 112 -331 203 -436 17 -19 29 -35 28 -36 -1 -1 -20 -4 -42 -7
-150 -21 -330 -116 -452 -237 -149 -147 -224 -324 -228 -533 -4 -185 43 -338
147 -481 16 -22 25 -42 21 -46 -5 -3 -33 -14 -63 -25 -216 -72 -395 -230 -499
-441 -66 -134 -85 -216 -85 -379 0 -128 7 -185 36 -269 100 -291 336 -505 651
-589 l82 -22 1675 0 c1610 0 1678 1 1745 19 261 70 450 241 556 501 39 95 56
305 35 425 -39 225 -194 434 -406 547 -64 34 -164 73 -188 73 -43 1 -45 16
-10 66 50 72 87 158 113 259 19 73 23 110 20 200 -4 119 -7 144 -32 220 -91
283 -324 486 -631 548 l-60 12 30 64 c59 127 72 308 31 446 -33 111 -124 234
-247 333 -33 26 -154 81 -213 96 -90 24 -104 25 -368 26 -251 2 -324 9 -389
41 -22 10 -43 19 -48 19 -17 0 -144 100 -173 137 -32 40 -89 126 -86 131 1 1
-5 18 -13 37 -23 55 -33 127 -35 248 -2 139 -6 154 -43 173 -38 20 -168 16
-286 -8z"/>
</g>
</svg>
